# xmcd
#
# Track frame offsets:
#	150
#	11627
#	26558
#	42485
#	53181
#	64786
#	70776
#	87574
#	100432
#	114105
#
# Disc length: 1709 seconds
#
# Revision: 0
# Processed by: cddbd v1.5.1PL2 Copyright (c) Steve Scherf et al.
# Submitted via: dBpowerAMP V4.0
#
DISCID=8306ab0a
DTITLE=Dangerfield - Nothing To It
DYEAR=2006
DGENRE=Bluegrass
TTITLE0=Nine Pound Hammer
TTITLE1=Red Haired Boy
TTITLE2=Paradise
TTITLE3=Windy and Warm
TTITLE4=Rocky Road Blues
TTITLE5=Banks of the Ohio
TTITLE6=Stuff That Works
TTITLE7=Foggy Mountain Special
TTITLE8=Lonesome Fugitive
TTITLE9=Nothing To It
EXTD=
EXTT0=
EXTT1=
EXTT2=
EXTT3=
EXTT4=
EXTT5=
EXTT6=
EXTT7=
EXTT8=
EXTT9=
PLAYORDER=
